<?xml version="1.0" encoding="utf-8"?>
<!-- Generator: Adobe Illustrator 16.0.0, SVG Export Plug-In . SVG Version: 6.00 Build 0)  -->
<!DOCTYPE svg PUBLIC "-//W3C//DTD SVG 1.1//EN" "http://www.w3.org/Graphics/SVG/1.1/DTD/svg11.dtd">
<svg version="1.1" id="Untitled-Page_x25_201" xmlns="http://www.w3.org/2000/svg" xmlns:xlink="http://www.w3.org/1999/xlink"
	 x="0px" y="0px" width="100px" height="100px" viewBox="0 0 100 100" enable-background="new 0 0 100 100" xml:space="preserve">
<path fill="none" d="z"/>
<g>
	<g>
		<path fill="#FF0900" d="M50.469,36.019h15.457l-4.621,11.08L50.469,36.019z"/>
		<path fill="#FF0900" d="M34.134,36.019h16.335l-11.773,11.08L34.134,36.019z"/>
		<path fill="#FF0900" d="M61.364,48.116l13.807-0.156l-25.076,22.2L61.364,48.116z"/>
		<path fill="#FF0900" d="M24.979,48.089h13.698L50.644,70.16L24.979,48.089z"/>
		<path fill="none" stroke="#FF0900" stroke-miterlimit="10" d="M65.699,36.019l8.769,11.227l-24.12,22.356L25.549,47.245
			l8.768-11.227H65.699z M65.562,35.15c0.278,0.069,0.547,0,0.687,0.209c3.049,3.763,6.108,7.897,9.097,11.869
			c0.069,0,0.069,0.129,0.069,0.27c0,0.208,0,0.278-0.069,0.338c-3.806,3.563-7.742,6.986-11.547,10.54
			c-0.748,0.687-1.426,1.374-2.173,2.059c-3.598,3.347-7.272,6.7-10.939,9.984c-0.069,0.069-0.2,0.139-0.338,0.139
			c-0.479,0-4.214-3.554-4.753-4.041l-3.537-3.145c-0.947-0.816-1.963-1.78-2.989-2.667c-0.816-0.756-1.694-1.434-2.44-2.189
			c-3.946-3.494-8.021-7.047-11.957-10.608c-0.139-0.131-0.07-0.201-0.07-0.409c0-0.687,1.634-2.46,1.904-2.737
			c2.44-3.077,4.891-6.535,7.333-9.542c0.07-0.138,0.34-0.069,0.479-0.069H65.562z"/>
		<path fill="#FF0900" d="M25.138,46.446h49.419v1.737H25.138V46.446z"/>
	</g>
	<path fill="#FF0900" d="M49.999,100C22.43,100,0,77.57,0,50S22.43,0,49.999,0C77.57,0,100,22.43,100,50S77.57,100,49.999,100z
		 M49.999,1.986C23.524,1.986,1.986,23.525,1.986,50c0,26.476,21.538,48.015,48.013,48.015c26.475,0,48.016-21.539,48.016-48.015
		C98.015,23.525,76.474,1.986,49.999,1.986z"/>
</g>
<path fill="none" d="z"/>
</svg>
